<?xml version="1.0" encoding="UTF-8" standalone="no"?>
<svg width="32px" height="22px" viewBox="0 0 32 22" version="1.1" xmlns="http://www.w3.org/2000/svg" xmlns:xlink="http://www.w3.org/1999/xlink">
    <!-- Generator: Sketch 3.8.3 (29802) - http://www.bohemiancoding.com/sketch -->
    <title>Menu</title>
    <desc>Created with Sketch.</desc>
    <defs></defs>
    <g id="Page-1" stroke="none" stroke-width="1" fill="none" fill-rule="evenodd">
        <g id="1466398157_Menu1" fill="#BBBBBB">
            <g id="Menu">
                <path d="M1,2 L31,2 C31.552,2 32,1.552 32,1 C32,0.448 31.552,0 31,0 L1,0 C0.448,0 0,0.448 0,1 C0,1.552 0.448,2 1,2 L1,2 Z" id="Shape"></path>
                <path d="M31,10 L1,10 C0.448,10 0,10.448 0,11 C0,11.552 0.448,12 1,12 L31,12 C31.552,12 32,11.552 32,11 C32,10.448 31.552,10 31,10 L31,10 Z" id="Shape"></path>
                <path d="M31,20 L1,20 C0.448,20 0,20.448 0,21 C0,21.552 0.448,22 1,22 L31,22 C31.552,22 32,21.552 32,21 C32,20.448 31.552,20 31,20 L31,20 Z" id="Shape"></path>
            </g>
        </g>
    </g>
</svg>