<svg class="logo" width="124px" height="25px" version="1.1" id="Layer_1" xmlns="http://www.w3.org/2000/svg" xmlns:xlink="http://www.w3.org/1999/xlink" x="0px" y="0px" viewBox="0 0 204.8 35.7" xml:space="preserve">
  <g id="Layer_1-2">
	<g id="Group_224">
		<path id="Path_445" class="logo_st0" fill="#0025BF" d="M0,23.9c0,1.8,1.4,3.3,3.2,3.4h25.7L0,0.6V23.9z"></path>
    <path id="Path_446" class="logo_st1" fill="#0B51FF" d="M12.8,0.6H0l29,26.8l9,8.3V23.9L12.8,0.6z"></path>
    <path id="Path_447" class="logo_st2" fill="#067DFF" d="M12.8,0.6L38,23.9V12.1L25.6,0.6H12.8z"></path>
    <path id="Path_448" class="logo_st3" fill="#03A5FF" d="M34.8,0.6h-9.2L38,12.1V4c0.1-1.8-1.2-3.3-3-3.4C34.9,0.6,34.9,0.6,34.8,0.6z"></path>
	</g>
    <g id="Group_54">
		<path id="Path_105" class="logo_st4" fill="#ffffff" d="M61.6,6.7v1.9c-1.2-1.5-2.9-2.3-4.8-2.2c-3.9,0-7.1,3.1-7.1,7c0,0,0,0,0,0.1V14
			c-0.2,3.9,2.8,7.3,6.7,7.5h0.4c1.8,0,3.6-0.8,4.8-2.2v0.2c0,4.1-1.7,5.7-4.5,5.7c-1.6,0-3.1-0.9-3.9-2.3l-3,1.4
			c1.3,2.6,3.9,4.3,6.8,4.2c4.9,0,8.1-2.8,8.1-9.3V6.8L61.6,6.7z M57.4,18.1c-2.2,0-4-1.7-4-3.9c0-0.1,0-0.1,0-0.2v-0.1
			c-0.1-2.2,1.6-4,3.8-4.1c0,0,0.1,0,0.1,0h0.1c2.3,0,4.2,1.9,4.2,4.2C61.5,16.3,59.7,18.1,57.4,18.1L57.4,18.1z"></path>
      <path id="Path_106" class="logo_st4" fill="#ffffff" d="M78.6,6.7v1.9c-1.1-1.5-2.9-2.3-4.8-2.2c-4.2,0.3-7.3,3.8-7,8c0.2,3.8,3.3,6.8,7.1,7
			c1.9,0.1,3.7-0.8,4.8-2.3V21h3.6V6.6h-3.7V6.7z M74.4,18.1c-2.2,0-4-1.7-4-3.9c0-0.1,0-0.1,0-0.2v-0.1c-0.1-2.2,1.6-4,3.8-4.1
			c0,0,0.1,0,0.1,0h0.1c2.3,0,4.1,1.9,4.1,4.2c0,0,0,0,0,0C78.4,16.3,76.6,18.1,74.4,18.1L74.4,18.1z"></path>
      <path id="Path_107" class="logo_st4" fill="#ffffff" d="M90.7,6.7V1.4l-3.6,2.8v2.5h-2.6v2.9h2.6v11.5h3.6V9.6h3.1V6.7H90.7z"></path>
      <path id="Path_108" class="logo_st4" fill="#ffffff" d="M109.7,13.8c0.2-3.9-2.9-7.2-6.8-7.4h-0.6c-4.1,0-7.5,3.4-7.5,7.5c0,4.1,3.4,7.5,7.5,7.5l0,0
			c2.6,0.1,5-1.1,6.5-3.2l-2.4-1.8c-1,1.2-2.4,1.8-3.9,1.8c-1.9,0.2-3.7-1.1-4.1-3h11.1C109.6,14.8,109.7,14.3,109.7,13.8z
			 M98.4,12.7c0.3-1.9,2-3.3,3.9-3.1c1.8-0.2,3.5,1.1,3.7,2.9c0,0.1,0,0.1,0,0.2H98.4z"></path>
      <path id="Path_109" class="logo_st4" fill="#ffffff" d="M128.9,6.7l-3.1,9.3l-3.1-9.3h-3.2l-3.1,9.3l-3.1-9.3h-3.9l5.3,14.4h3l3.2-9.9l3.4,9.9h3
			l5.2-14.4H128.9z"></path>
      <path id="Path_110" class="logo_st4" fill="#ffffff" d="M144.7,6.7v1.9c-1.1-1.5-2.9-2.3-4.8-2.2c-4.2,0.3-7.3,3.8-7,8c0.2,3.8,3.3,6.8,7.1,7
			c1.9,0.1,3.7-0.8,4.8-2.3V21h3.6V6.6h-3.7V6.7z M140.5,18.1c-2.2,0-4-1.7-4-3.9c0-0.1,0-0.1,0-0.2v-0.1c-0.1-2.2,1.6-4,3.8-4.1
			c0,0,0.1,0,0.1,0h0.1c2.3,0,4.2,1.8,4.2,4.1s-1.8,4.2-4.1,4.2L140.5,18.1z"></path>
      <path id="Path_111" class="logo_st4" fill="#ffffff" d="M161.5,6.7l-3.7,9.1l-3.7-9.1h-3.9l5.7,13.4l-3.2,8h3.8l9-21.5L161.5,6.7z"></path>
      <path id="Path_112" class="logo_st4" fill="#ffffff" d="M178.8,6.7v2.8c-1.2-2-3.4-3.2-5.7-3.1c-4.1,0.1-7.4,3.5-7.3,7.7c0.1,4,3.3,7.2,7.3,7.3
			c2.3,0.1,4.5-1.1,5.7-3.1v2.8h2V6.7H178.8z M173.2,19.6c-3.1,0-5.5-2.5-5.5-5.6v-0.1c-0.1-3,2.4-5.5,5.4-5.6h0.1
			c3.1,0,5.6,2.4,5.6,5.5V14c0.1,3-2.3,5.5-5.4,5.6L173.2,19.6z"></path>
      <path id="Path_113" class="logo_st4" fill="#ffffff" d="M192.2,6.4c-2.3-0.1-4.5,1.1-5.7,3.1V6.7h-2v21.4h2v-9.8c1.2,2,3.4,3.2,5.7,3.1
			c4.1-0.1,7.4-3.5,7.3-7.7C199.5,9.7,196.2,6.5,192.2,6.4z M192.1,19.6c-3.1,0.1-5.6-2.3-5.7-5.4c0,0,0-0.1,0-0.1
			c-0.1-3.1,2.4-5.7,5.5-5.7c3.1-0.1,5.7,2.4,5.7,5.5c0,0,0,0,0,0.1v0.2C197.6,17.1,195.2,19.6,192.1,19.6L192.1,19.6z"></path>
      <path id="Path_114" class="logo_st4" fill="#ffffff" d="M202.3,6.7v14.4h2V6.7H202.3z M203.2,0c-0.7-0.1-1.4,0.4-1.5,1.1c0,0.1,0,0.1,0,0.2
			c-0.1,0.7,0.4,1.4,1.1,1.5c0.1,0,0.1,0,0.2,0h0.2c0.7,0.1,1.4-0.4,1.5-1.1c0-0.1,0-0.1,0-0.2c0.1-0.7-0.4-1.4-1.1-1.5
			c-0.1,0-0.1,0-0.2,0H203.2z"></path>
	</g>
</g>
</svg>